<svg width="94" height="99" viewBox="0 0 94 99" fill="none" xmlns="http://www.w3.org/2000/svg">
<path fill-rule="evenodd" clip-rule="evenodd" d="M18.9717 98.2931V37.5038C18.9717 35.4058 20.217 33.7051 21.7635 33.7051H73.2616C74.8035 33.7051 76.0534 35.3955 76.0534 37.5038V98.2931" fill="white"/>
<path fill-rule="evenodd" clip-rule="evenodd" d="M19 83V35.9407C19 34.3166 20.2435 33 21.7878 33H73.2122C74.7519 33 76 34.3087 76 35.9407V83" fill="white"/>
<path d="M19 83V35.9407C19 34.3166 20.2435 33 21.7878 33H73.2122C74.7519 33 76 34.3087 76 35.9407V83" stroke="#CCCCCC" stroke-width="2"/>
<circle cx="47" cy="47" r="46" stroke="#CCCCCC" stroke-width="2"/>
<path d="M28.4214 66.8233H65.212" stroke="#EFEFEF" stroke-width="1.28" stroke-linecap="round"/>
<path d="M27.0206 75.2784H38.7676" stroke="#CCCCCC" stroke-width="1.28" stroke-linecap="round"/>
<path d="M43.7275 75.2783H55.4745" stroke="#EFEFEF" stroke-width="1.28" stroke-linecap="round"/>
<path d="M59.0372 75.2784H65.225" stroke="#EFEFEF" stroke-width="1.28" stroke-linecap="round"/>
<path d="M52.9496 56.958H65.2057" stroke="#CCCCCC" stroke-width="1.28" stroke-linecap="round"/>
<path d="M28.4193 56.958H45.9405" stroke="#EFEFEF" stroke-width="1.28" stroke-linecap="round"/>
<path d="M40.9578 85.1436H60.7392" stroke="#CCCCCC" stroke-width="1.28" stroke-linecap="round"/>
<path d="M28.4193 85.1436H33.1927" stroke="#EFEFEF" stroke-width="1.28" stroke-linecap="round"/>
<path d="M28.4276 48.502H56.8524" stroke="#CCCCCC" stroke-width="1.28" stroke-linecap="round"/>
<path d="M60.4408 48.502H65.2141" stroke="#EFEFEF" stroke-width="1.28" stroke-linecap="round"/>
</svg>
