<svg width="20" height="21" viewBox="0 0 20 21" fill="none" xmlns="http://www.w3.org/2000/svg">
<path opacity="0.2" d="M10 20.5398C15.5228 20.5398 20 16.0626 20 10.5398C20 5.01695 15.5228 0.539795 10 0.539795C4.47715 0.539795 0 5.01695 0 10.5398C0 16.0626 4.47715 20.5398 10 20.5398Z" fill="#BF3088"/>
<path d="M11 9.53979C11 8.98751 10.5523 8.53979 10 8.53979C9.44772 8.53979 9 8.98751 9 9.53979V14.5398C9 15.0921 9.44772 15.5398 10 15.5398C10.5523 15.5398 11 15.0921 11 14.5398V9.53979Z" fill="#BF3088"/>
<path d="M11 6.53979C11 5.98751 10.5523 5.53979 10 5.53979C9.44772 5.53979 9 5.98751 9 6.53979C9 7.09208 9.44772 7.53979 10 7.53979C10.5523 7.53979 11 7.09208 11 6.53979Z" fill="#BF3088"/>
</svg>
