<svg width="26" height="27" viewBox="0 0 26 27" fill="none" xmlns="http://www.w3.org/2000/svg">
<path d="M15.8308 7.12842V11.5785L17.3876 12.5575C17.4438 12.5699 17.502 12.5699 17.5582 12.5575L24.2516 8.04492C24.2467 7.82591 24.1665 7.61525 24.0247 7.44836C23.8828 7.28146 23.6877 7.16848 23.4724 7.12842H15.8308Z" fill="white"/>
<path d="M15.8306 13.2384L17.2501 14.2134C17.3165 14.2538 17.3929 14.2753 17.4707 14.2753C17.5485 14.2753 17.6248 14.2538 17.6913 14.2134C17.4475 14.3604 24.2506 9.84375 24.2506 9.84375V18.0224C24.2683 18.1881 24.2496 18.3557 24.1958 18.5135C24.142 18.6712 24.0544 18.8153 23.9391 18.9356C23.8238 19.056 23.6836 19.1497 23.5283 19.2102C23.3729 19.2706 23.2063 19.2965 23.04 19.2858H15.8298V13.2384H15.8306Z" fill="white"/>
<path d="M8.48239 11.1868C8.24654 11.1857 8.01478 11.2484 7.81167 11.3682C7.60855 11.4881 7.44165 11.6607 7.32864 11.8677C7.01998 12.4164 6.87188 13.0409 6.90126 13.6698C6.86919 14.2974 7.01749 14.9211 7.32864 15.4671C7.44118 15.6656 7.60397 15.8309 7.80067 15.9466C7.99737 16.0622 8.22103 16.124 8.4492 16.1258C8.67736 16.1277 8.90198 16.0694 9.10049 15.9569C9.299 15.8444 9.4644 15.6816 9.58008 15.4849C9.88783 14.9415 10.0331 14.321 9.99851 13.6974C10.0338 13.0542 9.89332 12.4136 9.59226 11.8441C9.48467 11.6439 9.32443 11.4768 9.12883 11.361C8.93323 11.2451 8.70971 11.1849 8.48239 11.1868Z" fill="white"/>
<path d="M1.74927 4.868V22.2774L14.993 25.0546V2.30457L1.74927 4.868ZM10.612 16.516C10.3643 16.8653 10.0349 17.1486 9.65248 17.3414C9.2701 17.5341 8.84639 17.6304 8.41827 17.6218C8.00092 17.6292 7.58796 17.5357 7.21451 17.3493C6.84105 17.1629 6.51815 16.889 6.27327 16.5509C5.69248 15.7401 5.40195 14.7571 5.44858 13.7608C5.39917 12.7156 5.69496 11.6833 6.29033 10.8228C6.5412 10.4669 6.87579 10.1781 7.2646 9.98204C7.6534 9.78593 8.08448 9.6885 8.51983 9.69832C8.93415 9.69 9.34418 9.78352 9.71392 9.97066C10.0837 10.1578 10.4018 10.4328 10.6405 10.7716C11.2154 11.6001 11.501 12.5951 11.453 13.6024C11.5036 14.64 11.2078 15.665 10.612 16.516Z" fill="white"/>
</svg>
